<mxfile host="app.diagrams.net" modified="2023-10-09T15:25:46.787Z" agent="Mozilla/5.0 (Windows NT 10.0; Win64; x64) AppleWebKit/537.36 (KHTML, like Gecko) Chrome/117.0.0.0 Safari/537.36" version="21.6.5" etag="XG1glIkQPbYxDmXLE14A" type="github">
  <diagram name="Page-1" id="KBVLXpfIl365ar-F-WJ8">
    <mxGraphModel>
      <root>
        <mxCell id="0" />
        <mxCell id="1" parent="0" />
      </root>
    </mxGraphModel>
  </diagram>
</mxfile>
